<svg xmlns="http://www.w3.org/2000/svg" viewBox="0 0 900 520" role="img" aria-label="Overloaded worker multitasking with many arms">
  <defs>
    <linearGradient id="bg" x1="0" y1="0" x2="1" y2="1"><stop offset="0" stop-color="#08111f"/><stop offset="0.55" stop-color="#111827"/><stop offset="1" stop-color="#2a1207"/></linearGradient>
    <radialGradient id="glow" cx="55%" cy="28%" r="65%"><stop offset="0" stop-color="#fb923c" stop-opacity="0.42"/><stop offset="0.42" stop-color="#ea580c" stop-opacity="0.18"/><stop offset="1" stop-color="#0f172a" stop-opacity="0"/></radialGradient>
    <filter id="shadow" x="-20%" y="-20%" width="140%" height="140%"><feDropShadow dx="0" dy="20" stdDeviation="18" flood-color="#000" flood-opacity="0.38"/></filter>
  </defs>
  <rect width="900" height="520" fill="url(#bg)"/>
  <rect width="900" height="520" fill="url(#glow)"/>
  <g opacity="0.22" stroke="#fb923c" stroke-width="2" fill="none">
    <path d="M60 92h250M610 84h210M696 140h88M86 414h310M610 430h230"/>
    <circle cx="245" cy="94" r="5" fill="#fb923c"/><circle cx="695" cy="84" r="5" fill="#fb923c"/><circle cx="737" cy="430" r="5" fill="#fb923c"/>
  </g>
  <g filter="url(#shadow)">
    <rect x="134" y="345" width="632" height="42" rx="10" fill="#0b1220" stroke="#fb923c" stroke-opacity="0.28"/>
    <rect x="358" y="228" width="190" height="148" rx="46" fill="#1f2937"/>
    <path d="M390 258c34 42 92 44 128 0v112H390z" fill="#111827" opacity="0.68"/>
    <circle cx="453" cy="173" r="62" fill="#c46d3d"/>
    <path d="M397 165c18-66 92-78 130-23 19 28 17 67 3 94-21-22-41-42-44-81-27 22-55 30-89 10z" fill="#141923"/>
    <path d="M416 191c28 22 58 22 86 0" stroke="#0f172a" stroke-width="7" stroke-linecap="round" opacity="0.35"/>
    <path d="M368 276c-82-22-125-62-155-116" stroke="#c46d3d" stroke-width="26" stroke-linecap="round" fill="none"/>
    <path d="M214 160c-24-2-43-12-55-28" stroke="#c46d3d" stroke-width="20" stroke-linecap="round" fill="none"/>
    <rect x="112" y="78" width="70" height="88" rx="16" fill="#0f172a" stroke="#fb923c" stroke-opacity="0.65" stroke-width="5"/>
    <circle cx="147" cy="142" r="6" fill="#fb923c"/>
    <path d="M370 300c-90 4-146 30-192 76" stroke="#c46d3d" stroke-width="26" stroke-linecap="round" fill="none"/>
    <path d="M178 376c-20 12-43 12-65 4" stroke="#c46d3d" stroke-width="20" stroke-linecap="round" fill="none"/>
    <rect x="82" y="358" width="90" height="54" rx="8" fill="#f8fafc" opacity="0.9" transform="rotate(-8 127 385)"/>
    <path d="M104 382h48M105 394h39" stroke="#ea580c" stroke-width="5" stroke-linecap="round" transform="rotate(-8 127 385)"/>
    <path d="M538 276c80-22 128-60 158-114" stroke="#c46d3d" stroke-width="26" stroke-linecap="round" fill="none"/>
    <path d="M696 162c19-11 39-12 61-5" stroke="#c46d3d" stroke-width="20" stroke-linecap="round" fill="none"/>
    <rect x="736" y="118" width="70" height="102" rx="16" fill="#0f172a" stroke="#fb923c" stroke-opacity="0.65" stroke-width="5" transform="rotate(8 771 169)"/>
    <path d="M754 139c20 16 28 37 20 63" stroke="#fb923c" stroke-width="6" stroke-linecap="round" fill="none" transform="rotate(8 771 169)"/>
    <path d="M542 302c88 8 143 34 188 78" stroke="#c46d3d" stroke-width="26" stroke-linecap="round" fill="none"/>
    <path d="M730 380c18 14 38 18 61 14" stroke="#c46d3d" stroke-width="20" stroke-linecap="round" fill="none"/>
    <ellipse cx="803" cy="393" rx="38" ry="18" fill="#0f172a" stroke="#fb923c" stroke-opacity="0.54" stroke-width="5"/>
    <path d="M347 352c-58-22-98-21-144 4" stroke="#c46d3d" stroke-width="22" stroke-linecap="round" fill="none"/>
    <rect x="184" y="312" width="150" height="58" rx="8" fill="#0b1220" stroke="#fb923c" stroke-opacity="0.5" stroke-width="4"/>
    <path d="M202 346h112M210 360h96" stroke="#fb923c" stroke-width="5" stroke-linecap="round" opacity="0.55"/>
    <path d="M558 352c54-22 96-18 138 12" stroke="#c46d3d" stroke-width="22" stroke-linecap="round" fill="none"/>
    <rect x="642" y="319" width="122" height="70" rx="10" fill="#0b1220" stroke="#fb923c" stroke-opacity="0.5" stroke-width="4"/>
    <circle cx="674" cy="354" r="10" fill="#fb923c" opacity="0.68"/><path d="M704 340h38M704 358h26" stroke="#fb923c" stroke-width="5" stroke-linecap="round" opacity="0.52"/>
  </g>
  <g opacity="0.5" fill="#fb923c">
    <circle cx="92" cy="236" r="4"/><circle cx="828" cy="278" r="5"/><circle cx="304" cy="78" r="3"/><circle cx="596" cy="94" r="4"/>
  </g>
</svg>